<?xml version="1.0" encoding="UTF-8" standalone="no"?> <svg version="1.0" width="390pt" height="215pt" viewBox="0 0 390 215" preserveAspectRatio="xMidYMid" id="svg14" sodipodi:docname="logo.svg" inkscape:version="1.2.2 (b0a8486541, 2022-12-01)" xmlns:inkscape="http://www.inkscape.org/namespaces/inkscape" xmlns:sodipodi="http://sodipodi.sourceforge.net/DTD/sodipodi-0.dtd" xmlns="http://www.w3.org/2000/svg" xmlns:svg="http://www.w3.org/2000/svg"> <g transform="matrix(0.1,0,0,-0.1,1.05,231.5)" fill="#000000" stroke="none" id="g12"> <path d="m 284,2026 c 30,-35 68,-94 85,-130 55,-115 61,-172 61,-626 V 862 l 55,-31 c 30,-17 57,-31 60,-31 3,0 5,205 5,455 0,375 -3,469 -16,532 -19,93 -50,165 -105,243 l -42,60 h -79 -79 z" id="path2" /> <path d="m 2072,2008 c 90,-93 145,-219 162,-370 l 6,-48 H 1405 570 v -45 -45 h 650 650 v -55 c 0,-30 -3,-55 -7,-55 -54,-1 -195,-25 -236,-40 -115,-43 -151,-142 -67,-185 16,-8 30,-19 30,-23 0,-5 -18,-18 -40,-31 -54,-30 -80,-66 -80,-111 0,-48 28,-84 92,-116 156,-79 389,-85 528,-14 l 40,20 v 86 86 l -58,-59 c -92,-91 -214,-140 -326,-131 -103,9 -162,62 -135,121 17,37 78,59 184,66 l 90,6 3,31 3,32 -105,4 c -93,3 -109,6 -128,25 -18,19 -20,26 -10,47 16,35 48,53 127,73 57,14 80,15 144,6 42,-7 84,-15 94,-18 15,-6 17,-1 17,39 0,40 -3,46 -25,52 -24,6 -25,10 -25,75 v 69 h 130 130 l 2,-312 3,-311 63,-35 62,-34 v 159 c 0,131 4,165 19,198 26,57 119,139 188,165 68,25 109,21 152,-16 88,-74 60,-252 -60,-379 -27,-29 -49,-55 -49,-58 0,-3 25,-20 55,-37 64,-36 75,-33 127,32 53,67 67,93 83,156 33,128 -36,281 -157,348 -46,25 -63,29 -128,29 -84,0 -133,-20 -184,-74 -17,-17 -33,-31 -38,-31 -4,0 -8,45 -8,100 v 100 h 640 640 v 45 45 h -640 -640 v 38 c 0,113 -78,300 -162,389 l -51,53 h -72 -73 z" id="path4" /> <path d="m 327,1583 c -4,-3 -7,-24 -7,-45 0,-38 0,-38 40,-38 h 40 v 45 c 0,44 0,45 -33,45 -19,0 -37,-3 -40,-7 z" id="path6" /> <path d="m 1055,1408 c -47,-17 -113,-66 -177,-131 l -58,-59 v 86 86 H 765 710 V 920 450 l 53,-30 52,-30 3,300 2,300 74,-64 c 41,-36 93,-74 115,-85 84,-43 198,-15 284,71 93,94 113,203 56,316 -62,124 -206,212 -294,180 z m 185,-103 c 37,-19 70,-74 70,-117 0,-79 -79,-182 -178,-229 -89,-43 -225,-20 -268,46 -24,36 -4,84 70,162 116,126 230,177 306,138 z" id="path8" /> <path d="m 3279,1395 c -19,-7 -54,-22 -76,-34 l -42,-21 -3,23 c -3,20 -9,22 -70,25 l -68,3 V 1126 860 l 60,-30 c 33,-16 64,-30 70,-30 6,0 10,62 10,176 0,166 1,178 25,228 42,89 150,176 218,176 35,0 77,-37 77,-67 0,-32 -58,-89 -100,-98 -16,-4 -30,-9 -30,-11 0,-12 95,-114 106,-114 21,0 122,104 129,133 4,15 4,39 0,54 -10,40 -83,109 -130,122 -52,14 -131,13 -176,-4 z" id="path10" /> </g> </svg> 